<?xml version="1.0" encoding="UTF-8" standalone="no"?>
<!-- Generator: Adobe Illustrator 25.3.1, SVG Export Plug-In . SVG Version: 6.00 Build 0)  -->

<svg
   xmlns:dc="http://purl.org/dc/elements/1.1/"
   xmlns:cc="http://creativecommons.org/ns#"
   xmlns:rdf="http://www.w3.org/1999/02/22-rdf-syntax-ns#"
   xmlns:svg="http://www.w3.org/2000/svg"
   xmlns="http://www.w3.org/2000/svg"
   xmlns:sodipodi="http://sodipodi.sourceforge.net/DTD/sodipodi-0.dtd"
   xmlns:inkscape="http://www.inkscape.org/namespaces/inkscape"
   version="1.1"
   id="Layer_1"
   x="0px"
   y="0px"
   viewBox="0 0 178.60001 61.200001"
   xml:space="preserve"
   sodipodi:docname="edamam-light.svg"
   inkscape:version="0.92.5 (2060ec1f9f, 2020-04-08)"
   width="178.60001"
   height="61.200001"><metadata
   id="metadata46"><rdf:RDF><cc:Work
       rdf:about=""><dc:format>image/svg+xml</dc:format><dc:type
         rdf:resource="http://purl.org/dc/dcmitype/StillImage" /><dc:title></dc:title></cc:Work></rdf:RDF></metadata><defs
   id="defs44" /><sodipodi:namedview
   pagecolor="#ffffff"
   bordercolor="#666666"
   borderopacity="1"
   objecttolerance="10"
   gridtolerance="10"
   guidetolerance="10"
   inkscape:pageopacity="0"
   inkscape:pageshadow="2"
   inkscape:window-width="1920"
   inkscape:window-height="995"
   id="namedview42"
   showgrid="false"
   inkscape:zoom="1.2125"
   inkscape:cx="-91.701031"
   inkscape:cy="21.000004"
   inkscape:window-x="0"
   inkscape:window-y="0"
   inkscape:window-maximized="1"
   inkscape:current-layer="Layer_1"
   fit-margin-top="2"
   fit-margin-left="2"
   fit-margin-right="2"
   fit-margin-bottom="2" />
<style
   type="text/css"
   id="style2">
	.st0{fill:#77CC00;}
	.st1{fill:#F4F7FA;}
	.st2{opacity:0.7;fill:#F4F7FA;enable-background:new    ;}
	.st3{fill:#929497;}
</style>
<g
   id="Layer_1_1_"
   transform="translate(-106.5,-10.300001)">
</g>
<g
   id="Layer_2_1_"
   transform="translate(-106.5,-10.300001)">
	<circle
   class="st0"
   cx="254.5"
   cy="40.900002"
   id="ellipse5"
   r="28.6"
   style="fill:#77cc00" />
	<g
   id="g17">
		<path
   class="st1"
   d="m 265.7,29.5 h -22.3 c -0.7,0 -1.3,-0.6 -1.3,-1.3 v -0.6 c 0,-0.7 0.6,-1.3 1.3,-1.3 h 22.3 c 0.7,0 1.3,0.6 1.3,1.3 v 0.6 c 0,0.8 -0.6,1.3 -1.3,1.3 z"
   id="path7"
   inkscape:connector-curvature="0"
   style="fill:#f4f7fa" />
		<path
   class="st1"
   d="m 265.7,42.5 h -22.3 c -0.7,0 -1.3,-0.6 -1.3,-1.3 v -0.5 c 0,-0.7 0.6,-1.3 1.3,-1.3 h 22.3 c 0.7,0 1.3,0.6 1.3,1.3 v 0.5 c 0,0.7 -0.6,1.3 -1.3,1.3 z"
   id="path9"
   inkscape:connector-curvature="0"
   style="fill:#f4f7fa" />
		<path
   class="st1"
   d="m 265.7,55.4 h -22.3 c -0.7,0 -1.3,-0.6 -1.3,-1.3 v -0.6 c 0,-0.7 0.6,-1.3 1.3,-1.3 h 22.3 c 0.7,0 1.3,0.6 1.3,1.3 v 0.6 c 0,0.8 -0.6,1.3 -1.3,1.3 z"
   id="path11"
   inkscape:connector-curvature="0"
   style="fill:#f4f7fa" />
		<path
   class="st2"
   d="m 249.9,36 h -6.4 c -0.7,0 -1.3,-0.6 -1.3,-1.3 v -0.5 c 0,-0.7 0.6,-1.3 1.3,-1.3 h 6.4 c 0.7,0 1.3,0.6 1.3,1.3 v 0.5 c 0,0.7 -0.6,1.3 -1.3,1.3 z"
   id="path13"
   inkscape:connector-curvature="0"
   style="opacity:0.7;fill:#f4f7fa;enable-background:new" />
		<path
   class="st2"
   d="m 250.1,49 h -6.5 c -0.7,0 -1.3,-0.6 -1.3,-1.3 v -0.6 c 0,-0.7 0.6,-1.3 1.3,-1.3 h 6.5 c 0.7,0 1.3,0.6 1.3,1.3 v 0.6 c -0.1,0.7 -0.6,1.3 -1.3,1.3 z"
   id="path15"
   inkscape:connector-curvature="0"
   style="opacity:0.7;fill:#f4f7fa;enable-background:new" />
	</g>
</g>
<g
   id="Layer_3"
   style="fill:#f9f9f9"
   transform="translate(-106.5,-10.300001)">
	<g
   id="g38"
   style="fill:#f9f9f9">
		<path
   class="st3"
   d="m 110.5,42.4 v 4.2 h -2 V 35.2 h 4.4 c 1.3,0 2.3,0.3 3,1 0.7,0.7 1.1,1.5 1.1,2.6 0,1.1 -0.4,2 -1.1,2.6 -0.7,0.6 -1.8,0.9 -3.1,0.9 h -2.3 z m 0,-1.6 h 2.4 c 0.7,0 1.2,-0.2 1.6,-0.5 0.4,-0.3 0.6,-0.8 0.6,-1.4 0,-0.6 -0.2,-1.1 -0.6,-1.5 -0.4,-0.4 -0.9,-0.6 -1.5,-0.6 h -2.4 z"
   id="path20"
   style="fill:#f9f9f9"
   inkscape:connector-curvature="0" />
		<path
   class="st3"
   d="m 129,41.2 c 0,1.1 -0.2,2.1 -0.6,2.9 -0.4,0.8 -0.9,1.5 -1.7,1.9 -0.7,0.5 -1.5,0.7 -2.5,0.7 -0.9,0 -1.7,-0.2 -2.5,-0.7 -0.7,-0.5 -1.3,-1.1 -1.7,-1.9 -0.4,-0.8 -0.6,-1.8 -0.6,-2.9 v -0.6 c 0,-1.1 0.2,-2.1 0.6,-2.9 0.4,-0.8 0.9,-1.5 1.7,-1.9 0.7,-0.5 1.5,-0.7 2.5,-0.7 0.9,0 1.7,0.2 2.5,0.7 0.7,0.4 1.3,1.1 1.7,1.9 0.4,0.8 0.6,1.8 0.6,2.9 z m -2,-0.6 c 0,-1.3 -0.2,-2.2 -0.7,-2.9 -0.5,-0.7 -1.2,-1 -2,-1 -0.9,0 -1.5,0.3 -2,1 -0.5,0.7 -0.7,1.6 -0.7,2.8 v 0.7 c 0,1.2 0.2,2.2 0.7,2.9 0.5,0.7 1.2,1 2,1 0.9,0 1.5,-0.3 2,-1 0.5,-0.7 0.7,-1.6 0.7,-2.9 z"
   id="path22"
   style="fill:#f9f9f9"
   inkscape:connector-curvature="0" />
		<path
   class="st3"
   d="m 141.1,43.8 1.8,-8.6 h 2 l -2.6,11.4 h -1.9 l -2.2,-8.3 -2.2,8.3 h -2 l -2.6,-11.4 h 2 l 1.8,8.5 2.2,-8.5 h 1.7 z"
   id="path24"
   style="fill:#f9f9f9"
   inkscape:connector-curvature="0" />
		<path
   class="st3"
   d="m 154.1,41.5 h -4.7 V 45 h 5.5 v 1.6 h -7.4 V 35.2 h 7.4 v 1.6 h -5.4 V 40 h 4.7 v 1.5 z"
   id="path26"
   style="fill:#f9f9f9"
   inkscape:connector-curvature="0" />
		<path
   class="st3"
   d="m 161.9,42.2 h -2.2 v 4.4 h -2 V 35.2 h 4 c 1.3,0 2.3,0.3 3,0.9 0.7,0.6 1.1,1.4 1.1,2.6 0,0.8 -0.2,1.4 -0.6,1.9 -0.4,0.5 -0.9,0.9 -1.5,1.2 l 2.6,4.7 v 0.1 h -2.1 z m -2.2,-1.6 h 2 c 0.7,0 1.2,-0.2 1.6,-0.5 0.4,-0.3 0.6,-0.8 0.6,-1.4 0,-0.6 -0.2,-1.1 -0.5,-1.4 -0.3,-0.3 -0.9,-0.5 -1.6,-0.5 h -2.1 z"
   id="path28"
   style="fill:#f9f9f9"
   inkscape:connector-curvature="0" />
		<path
   class="st3"
   d="m 175.5,41.5 h -4.7 V 45 h 5.5 v 1.6 h -7.4 V 35.2 h 7.4 v 1.6 h -5.4 V 40 h 4.7 v 1.5 z"
   id="path30"
   style="fill:#f9f9f9"
   inkscape:connector-curvature="0" />
		<path
   class="st3"
   d="M 179.1,46.6 V 35.2 h 3.4 c 1,0 1.9,0.2 2.7,0.7 0.8,0.4 1.4,1.1 1.8,1.9 0.4,0.8 0.6,1.8 0.6,2.8 v 0.6 c 0,1.1 -0.2,2 -0.6,2.8 -0.4,0.8 -1,1.4 -1.8,1.9 -0.8,0.4 -1.7,0.7 -2.7,0.7 0,0 -3.4,0 -3.4,0 z m 2,-9.8 V 45 h 1.3 c 1,0 1.8,-0.3 2.4,-1 0.6,-0.7 0.8,-1.6 0.8,-2.8 v -0.6 c 0,-1.2 -0.3,-2.2 -0.8,-2.8 -0.5,-0.7 -1.3,-1 -2.3,-1 0,0 -1.4,0 -1.4,0 z"
   id="path32"
   style="fill:#f9f9f9"
   inkscape:connector-curvature="0" />
		<path
   class="st3"
   d="M 195.9,46.6 V 35.2 h 3.9 c 1.3,0 2.3,0.3 2.9,0.8 0.6,0.5 1,1.3 1,2.3 0,0.5 -0.1,1 -0.4,1.4 -0.3,0.4 -0.7,0.7 -1.2,1 0.6,0.2 1.1,0.5 1.4,0.9 0.3,0.4 0.5,1 0.5,1.7 0,1.1 -0.3,1.9 -1,2.5 -0.7,0.6 -1.7,0.9 -2.9,0.9 h -4.2 z m 2,-6.6 h 1.9 c 0.6,0 1.1,-0.1 1.4,-0.4 0.3,-0.3 0.5,-0.7 0.5,-1.2 0,-0.6 -0.2,-1 -0.5,-1.2 -0.3,-0.2 -0.8,-0.4 -1.5,-0.4 h -1.9 V 40 Z m 0,1.5 V 45 h 2.2 c 0.6,0 1.1,-0.2 1.5,-0.5 0.3,-0.3 0.5,-0.7 0.5,-1.3 0,-1.2 -0.6,-1.8 -1.8,-1.8 z"
   id="path34"
   style="fill:#f9f9f9"
   inkscape:connector-curvature="0" />
		<path
   class="st3"
   d="m 210.5,40.6 2.6,-5.4 h 2.2 l -3.8,7.2 v 4.2 h -2 v -4.2 l -3.8,-7.2 h 2.2 z"
   id="path36"
   style="fill:#f9f9f9"
   inkscape:connector-curvature="0" />
	</g>
</g>
</svg>